<svg width="67" height="67" viewBox="0 0 67 67" fill="none" xmlns="http://www.w3.org/2000/svg">
<path d="M8.375 27.9167H58.625M19.5417 8.375V13.9583M47.4583 8.375V13.9583M17.3083 58.625H49.6917C52.8186 58.625 54.3822 58.625 55.5765 58.0164C56.627 57.4813 57.4813 56.627 58.0164 55.5765C58.625 54.3822 58.625 52.8186 58.625 49.6917V22.8917C58.625 19.7647 58.625 18.2012 58.0164 17.0069C57.4813 15.9563 56.627 15.1022 55.5765 14.5669C54.3822 13.9583 52.8186 13.9583 49.6917 13.9583H17.3083C14.1814 13.9583 12.6179 13.9583 11.4236 14.5669C10.373 15.1022 9.51883 15.9563 8.98356 17.0069C8.375 18.2012 8.375 19.7647 8.375 22.8917V49.6917C8.375 52.8186 8.375 54.3822 8.98356 55.5765C9.51883 56.627 10.373 57.4813 11.4236 58.0164C12.6179 58.625 14.1814 58.625 17.3083 58.625Z" stroke="#D8A731" stroke-width="5" stroke-linecap="round" stroke-linejoin="round"/>
</svg>
