<svg width="67" height="67" viewBox="0 0 67 67" fill="none" xmlns="http://www.w3.org/2000/svg">
<path d="M31.7848 66.4109C31.7848 66.4109 31.7862 66.4121 33.5 64.2083L35.2138 66.4121C34.2057 67.196 32.7929 67.1951 31.7848 66.4109Z" fill="#D8A731"/>
<path fill-rule="evenodd" clip-rule="evenodd" d="M33.5 16.75C27.3329 16.75 22.3334 21.7495 22.3334 27.9167C22.3334 34.0837 27.3329 39.0833 33.5 39.0833C39.6671 39.0833 44.6667 34.0837 44.6667 27.9167C44.6667 21.7495 39.6671 16.75 33.5 16.75ZM27.9167 27.9167C27.9167 24.8331 30.4164 22.3333 33.5 22.3333C36.5837 22.3333 39.0834 24.8331 39.0834 27.9167C39.0834 31.0003 36.5837 33.5 33.5 33.5C30.4164 33.5 27.9167 31.0003 27.9167 27.9167Z" fill="#D8A731"/>
<path fill-rule="evenodd" clip-rule="evenodd" d="M31.7848 66.4109L33.5 64.2083C35.2138 66.4121 35.2169 66.4096 35.2169 66.4096L35.2222 66.4056L35.2395 66.392L35.3007 66.3439C35.3531 66.3024 35.4288 66.2426 35.5262 66.1647C35.7205 66.0092 36.0017 65.782 36.3568 65.4889C37.0667 64.9029 38.0742 64.052 39.2805 62.9797C41.6891 60.8388 44.9087 57.7989 48.1376 54.2114C51.3583 50.6327 54.6416 46.4505 57.1323 42.0224C59.6088 37.6199 61.4167 32.7722 61.4167 27.9167C61.4167 20.5127 58.4754 13.412 53.2402 8.1766C48.0047 2.94122 40.9041 0 33.5 0C26.0961 0 18.9954 2.94122 13.76 8.1766C8.52459 13.412 5.58337 20.5127 5.58337 27.9167C5.58337 32.7722 7.39131 37.6199 9.86766 42.0224C12.3586 46.4505 15.6418 50.6327 18.8625 54.2114C22.0913 57.7989 25.311 60.8388 27.7196 62.9797C28.9259 64.052 29.9334 64.9029 30.6433 65.4889C30.9984 65.782 31.2795 66.0092 31.4738 66.1647C31.5713 66.2426 31.6469 66.3024 31.6994 66.3439L31.7606 66.392L31.7779 66.4056L31.7848 66.4109ZM17.708 12.1246C21.8963 7.93629 27.5769 5.58333 33.5 5.58333C39.4231 5.58333 45.1039 7.93629 49.2922 12.1246C53.4803 16.3129 55.8334 21.9935 55.8334 27.9167C55.8334 31.4361 54.5006 35.3123 52.2662 39.2849C50.046 43.2317 47.048 47.0756 43.9875 50.4761C40.9351 53.8677 37.8735 56.7602 35.5712 58.8067C34.7775 59.5122 34.0765 60.1149 33.5 60.6009C32.9236 60.1149 32.2226 59.5122 31.4289 58.8067C29.1266 56.7602 26.065 53.8677 23.0126 50.4761C19.952 47.0756 16.954 43.2317 14.734 39.2849C12.4994 35.3123 11.1667 31.4361 11.1667 27.9167C11.1667 21.9935 13.5197 16.3129 17.708 12.1246Z" fill="#D8A731"/>
</svg>
