<svg xmlns="http://www.w3.org/2000/svg" xmlns:xlink="http://www.w3.org/1999/xlink" version="1.1" x="0px" y="0px" viewBox="0 0 163 208.75" enable-background="new 0 0 163 167" xml:space="preserve"><g><path fill="#000000" d="M101.8,77.8l-7.5-5.2c-0.2-0.2-0.4-0.4-0.4-0.6c0-0.3,0-0.5,0.2-0.7l1.4-1.7c0.5-0.7,0.6-1.5,0.2-2.3   c-0.3-0.6-0.8-1-1.4-1.1c0.2-0.5,0.6-1.4,1.9-1.5c1.5-0.2,2.4,0.8,2.8,1.6c0.4,0.9,0.4,2.2-0.7,3.1l0.2,0.2l0,0.1l-0.3-0.2   l-1.5,1.2l1.9-0.3c0.1,0,3.3-0.6,4.8-2.9c0.8-1.2,1-2.5,0.6-4.1c-0.8-3.2-3.6-5.6-7-5.9c0,0-0.1-0.4-0.2-1.1   c-0.1-0.7-0.3-1.7-0.6-2.9c-0.6-2.4-1.6-5.5-3.5-8.2c-0.5-0.7-1-1.3-1.6-1.9c-0.6-0.6-1.1-1.1-1.5-1.7c-0.9-1.1-1.5-2.4-1.7-3.5   c-0.2-1.2-0.2-2.2-0.2-2.8c0-0.7,0.1-1.1,0.1-1.1s-0.1,0.4-0.2,1.1c-0.1,0.7-0.2,1.7-0.1,2.9c0.1,1.2,0.7,2.6,1.5,3.8   c0.4,0.6,1,1.2,1.4,1.8c0.5,0.6,0.9,1.2,1.3,1.9c1.6,2.7,2.3,5.7,2.7,8c0.2,1.1,0.3,2.1,0.3,2.8c0,0.4,0,0.6,0.1,0.8   c-2.1,0.1-4.5,0.8-6.1,2.9l0.1,0.1c-1,0.1-1.7,0.7-2.2,1.1c-2.1-2-4-2.5-5.3-2.5c-1.6,0-3.2,0.8-4,1.9c0,0.1-0.1,0.1-0.1,0.2   c-1.6-2.8-4.3-3.6-6.5-3.8c0-0.2,0-0.5,0.1-0.8c0.1-0.7,0.2-1.6,0.4-2.8c0.1-0.6,0.2-1.2,0.4-1.8c0.2-0.6,0.3-1.3,0.6-2   c0.5-1.3,1.1-2.7,2-4.1c0.4-0.7,0.8-1.3,1.3-1.9c0.4-0.6,0.9-1.2,1.3-1.9c0.8-1.3,1.3-2.7,1.5-3.9c0.1-1.2,0-2.2-0.1-2.9   c-0.1-0.7-0.2-1.1-0.2-1.1s0,0.4,0.1,1.1c0,0.7,0.1,1.7-0.2,2.8c-0.2,1.1-0.8,2.4-1.7,3.5c-0.4,0.6-1,1.1-1.5,1.8   c-0.5,0.6-1,1.2-1.5,1.9c-1,1.3-1.8,2.7-2.4,4.1c-0.3,0.7-0.5,1.4-0.8,2.1c-0.2,0.7-0.4,1.3-0.5,1.9c-0.3,1.2-0.5,2.2-0.6,2.9   c-0.1,0.6-0.2,1-0.2,1.1c-3.5,0.3-6.4,2.7-7.1,6c-0.4,1.6-0.2,2.9,0.6,4.1c1.5,2.3,4.6,2.8,4.8,2.9l1.9,0.3l-1.6-1.3   c-1-0.9-1.1-2.1-0.7-3c0.5-1.2,1.6-1.9,2.9-1.8c1.4,0.2,1.8,1.1,2,1.6c-0.5,0.2-0.9,0.5-1.1,1c-0.4,0.8-0.3,1.6,0.2,2.3l1.4,1.7   c0.2,0.2,0.2,0.5,0.2,0.7c0,0.3-0.2,0.5-0.4,0.6l-7.5,5.2c-4.8,3.3-7.6,8.7-7.6,14.5c0,5.8,2.9,11.3,7.7,14.6l6.9,4.7   c0.2,0.2,0.4,0.4,0.4,0.7s-0.1,0.6-0.3,0.8c-0.5,0.5-0.7,1.3-0.4,2c0.3,0.7,1,1.2,1.7,1.2h20.5c0.8,0,1.4-0.4,1.7-1.2   c0.3-0.7,0.1-1.5-0.4-2c-0.2-0.2-0.3-0.5-0.3-0.8c0-0.3,0.2-0.5,0.4-0.7l6.9-4.7c4.8-3.3,7.7-8.7,7.7-14.6   C109.4,86.5,106.6,81.1,101.8,77.8z M67.8,89.9l3.6-4.1l3.8,4.1H67.8z M79.6,89.9l3.6-4.1l3.8,4.1H79.6z M91.5,89.9l3.6-4.1   l3.8,4.1H91.5z M58.1,90.2c0.2-1.6,0.6-3.1,1.3-4.5l4.1,4.5L58.1,90.2z M103.1,90.2l3.8-4.4c0.6,1.4,1,2.9,1.2,4.4L103.1,90.2z    M81.8,74.1l-0.4,0.6l1.1-0.1c1-0.1,2-0.3,2.8-0.5h9.1l3,2.1H68.9l3-2.1H81.8z M98.4,76.9l1.1,0.7H66.8l1.1-0.7H98.4z M94.6,67.7   c0.2,0.3,0.1,0.7-0.1,1l-1.4,1.7c-0.1,0.1-0.2,0.2-0.2,0.4H91c1.1-1.3,1.6-2.6,1.8-3.7h0.9C94.1,67.2,94.4,67.4,94.6,67.7z    M96.5,58.3c3.2,0.2,5.8,2.3,6.5,5.2c0.3,1.3,0.1,2.4-0.5,3.3c-0.7,1-1.8,1.6-2.7,2c0.4-0.9,0.5-2,0-3c-0.7-1.5-2.2-2.4-3.9-2.2   c-1.9,0.2-2.6,1.5-2.8,2.4H93c0-0.2,0-0.3,0-0.4c0-0.9-0.2-1.8-0.6-2.6c0,0,0-0.1,0.1-0.1c0.1-0.2,0.3-0.4,0.5-0.6   c0.2-0.2,0.6-0.5,1-0.7c0.2-0.1,0.4-0.2,0.7-0.3c0.2-0.1,0.5-0.1,0.7-0.2c1-0.2,2-0.1,2.8,0.1c0.4,0.1,0.7,0.1,0.9,0.2   c0.2,0.1,0.4,0.1,0.4,0.1s-0.1,0-0.3-0.1c-0.2-0.1-0.5-0.2-0.9-0.3c-0.8-0.2-1.8-0.5-2.9-0.4c-0.3,0-0.5,0-0.8,0.1   c-0.3,0-0.5,0.1-0.8,0.2c-0.5,0.2-0.9,0.4-1.3,0.7c-0.2,0.2-0.4,0.4-0.6,0.5c-0.1-0.2-0.2-0.4-0.4-0.5c-0.5-0.5-1-0.8-1.5-1   C91.8,58.5,94.5,58.2,96.5,58.3z M78.5,61.5c0.4-0.7,1.5-1.5,3.1-1.5c1.2,0,3,0.4,5,2.5l0,0.1c0.1,0.1,0.3,0.3,0.5,0.7   c0.3,0.5,0.7,1.2,0.9,2c0.1,0.4,0.2,0.8,0.2,1.2c0,0.4,0,0.7-0.1,1c-0.1,0.6-0.3,1-0.3,1c0,0,0.2-0.3,0.5-0.9   c0.1-0.3,0.2-0.7,0.3-1.1c0.1-0.4,0-0.8,0-1.3c-0.1-0.9-0.4-1.7-0.7-2.3c-0.1-0.2-0.2-0.4-0.3-0.6c0.3-0.3,0.9-0.9,1.7-0.9   c0.5,0,1,0.3,1.6,0.8c0.8,0.9,1.2,2.1,1.2,3.4c0,1.6-0.7,6.7-8.7,7.9c1-1.6,2.7-5.2,2-7.5c-0.3-0.9-1-1.6-1.9-2   c-0.5-0.2-1-0.3-1.5-0.3c-1.2,0-2.3,0.5-3.2,1.3c0-0.7-0.1-1.8-0.4-2.4C78.1,62.2,78.3,61.7,78.5,61.5z M84.2,66h-5.1   c1-1.1,2.5-1.6,3.8-1.1C83.6,65.1,84,65.5,84.2,66z M69.8,63.6c-1.8-0.2-3.3,0.8-3.9,2.4c-0.4,1-0.3,2,0.1,2.8c-0.9-0.4-2-1-2.7-2   c-0.6-0.9-0.8-2-0.5-3.3c0.7-2.9,3.4-5.1,6.5-5.2c0.2,0,0.4,0,0.7,0c3.3,0,7.2,1.3,7.6,7.2c0,0.1,0,0.2,0,0.3c0,0,0,0,0,0.1   c0,0.1,0,0.2,0,0.2h-1.8c0,0,0,0,0-0.1c0-0.4-0.1-0.8-0.3-1.4c-0.1-0.3-0.2-0.6-0.3-0.9c-0.1-0.3-0.3-0.6-0.5-1   c-0.2-0.3-0.5-0.6-0.8-0.9c-0.3-0.3-0.7-0.5-1-0.7c-0.4-0.1-0.7-0.3-1.1-0.4c-0.4,0-0.8-0.1-1.1-0.1c-0.4,0-0.7,0-1,0.1   c-0.3,0.1-0.6,0.1-0.9,0.2c-0.6,0.1-1,0.3-1.3,0.4c-0.3,0.1-0.5,0.2-0.5,0.2s0.2,0,0.5-0.1c0.3-0.1,0.8-0.2,1.3-0.3   c0.3,0,0.6-0.1,0.9-0.1c0.3,0,0.7,0,1,0c0.4,0,0.7,0.1,1,0.2c0.4,0.1,0.7,0.3,1,0.4c0.3,0.2,0.6,0.4,0.8,0.7   c0.3,0.2,0.4,0.5,0.6,0.8c0.1,0.3,0.3,0.6,0.4,0.9c0.1,0.3,0.2,0.6,0.2,0.8c0.1,0.5,0.1,1,0.1,1.3c0,0,0,0,0,0h-2.3   C72.5,65.1,71.7,63.8,69.8,63.6z M71.7,68.8c-0.2-0.3-0.3-0.7-0.1-1c0.2-0.3,0.5-0.5,0.9-0.5h12c0,1.1-0.4,2.5-0.9,3.7H73.3   c-0.1-0.1-0.1-0.3-0.2-0.4L71.7,68.8z M63.8,79.8h38.7c1.4,1.2,2.5,2.5,3.4,4.1l-4.8,5.5l-6-6.6l-5.8,6.6l-6-6.6l-5.8,6.6l-6-6.6   l-5.8,6.6l-5.2-5.7C61.3,82.3,62.4,81,63.8,79.8z M94,114.6c0,0.1-0.2,0.4-0.6,0.4H72.8c-0.4,0-0.6-0.3-0.6-0.4   c0-0.1-0.1-0.4,0.1-0.7c0.5-0.5,0.7-1.1,0.6-1.7c0-0.1,0-0.2-0.1-0.3h20.3c0,0.1,0,0.2-0.1,0.3c-0.1,0.6,0.2,1.3,0.6,1.7   C94.1,114.1,94,114.5,94,114.6z M94.2,110.5c-0.2,0.2-0.4,0.4-0.6,0.6h-21c-0.2-0.2-0.3-0.4-0.6-0.6l-3.4-2.3h28.9L94.2,110.5z    M101,105.8l-2.4,1.6H67.6l-2.4-1.6c-1.7-1.2-3.1-2.6-4.3-4.2h4.8l-6-6.6l-1.2,1.4C58.2,95.2,58,94,58,92.7h50.2   c0,1.1-0.2,2.2-0.4,3.3l-1-1.1l-5.7,6.5L95.2,95l-5.8,6.6H101h0.2h4C104.2,103.2,102.7,104.7,101,105.8z"/><path fill="#000000" d="M77.8,44.9c0,0,0.2-0.1,0.6-0.2c0.2-0.1,0.4-0.2,0.7-0.3c0.1-0.1,0.3-0.2,0.4-0.3c0.1-0.1,0.2-0.2,0.4-0.4   c0.3-0.2,0.5-0.6,0.7-0.9c0.2-0.4,0.4-0.8,0.5-1.2c0.1-0.4,0.2-0.9,0.3-1.3c0.1-0.5,0.1-0.9,0.1-1.4c0-1.9-0.4-3.7-0.7-5   c-0.3-1.3-0.5-2.2-0.5-2.2s-0.1,0.9,0,2.3c0,0.7,0.1,1.5,0.1,2.3c0,0.8,0.1,1.7,0.1,2.6c0,0.4,0,0.9,0,1.3c0,0.2,0,0.4-0.1,0.6   c0,0.2-0.1,0.4-0.1,0.6c-0.1,0.4-0.2,0.8-0.3,1.1c-0.2,0.3-0.3,0.7-0.5,0.9c-0.1,0.1-0.2,0.3-0.3,0.4c-0.1,0.1-0.2,0.2-0.3,0.3   c-0.2,0.2-0.4,0.4-0.5,0.5C78,44.8,77.8,44.9,77.8,44.9z"/><path fill="#000000" d="M85,41.6c0.1,0.4,0.3,0.8,0.5,1.2c0.2,0.4,0.4,0.7,0.7,1c0.1,0.1,0.2,0.3,0.4,0.4c0.1,0.1,0.3,0.2,0.4,0.3   c0.2,0.2,0.5,0.3,0.7,0.3c0.4,0.1,0.6,0.2,0.6,0.2s-0.2-0.1-0.5-0.4c-0.2-0.1-0.3-0.3-0.5-0.5c-0.1-0.1-0.2-0.2-0.3-0.3   c-0.1-0.1-0.2-0.3-0.3-0.4c-0.2-0.2-0.3-0.6-0.5-0.9c-0.1-0.4-0.2-0.7-0.3-1.1c0-0.2-0.1-0.4-0.1-0.6c0-0.2,0-0.4-0.1-0.6   c0-0.4,0-0.9-0.1-1.3c0-0.9,0-1.8,0.1-2.6c0-0.8,0.1-1.6,0.1-2.3c0.1-1.4,0-2.3,0-2.3s-0.2,0.9-0.5,2.2c-0.2,0.7-0.3,1.4-0.4,2.3   c-0.1,0.9-0.2,1.8-0.2,2.7c0,0.5,0,0.9,0.1,1.4C84.8,40.7,84.9,41.2,85,41.6z"/><path fill="#000000" d="M83.1,44.9c0,0,0.2-0.9,0.3-2.3c0.1-1.4,0.2-3.2,0.2-5.1c0-1.8-0.1-3.7-0.2-5.1c-0.1-1.4-0.3-2.3-0.3-2.3   s-0.2,0.9-0.3,2.3c-0.1,1.4-0.2,3.2-0.2,5.1c0,1.8,0.1,3.7,0.2,5.1C82.9,44,83.1,44.9,83.1,44.9z"/><polygon fill="#000000" points="65.8,101.6 77.6,101.6 71.6,95  "/><polygon fill="#000000" points="77.6,101.6 89.4,101.6 83.4,95  "/><polygon fill="#000000" points="62,94.6 65.8,98.8 69.5,94.6  "/><polygon fill="#000000" points="81.3,94.6 73.8,94.6 77.6,98.8  "/><polygon fill="#000000" points="93.1,94.6 85.6,94.6 89.4,98.8  "/><polygon fill="#000000" points="104.9,94.6 97.4,94.6 101.3,98.8  "/></g><text x="0" y="182" fill="#000000" font-size="5px" font-weight="bold" font-family="'Helvetica Neue', Helvetica, Arial-Unicode, Arial, Sans-serif">Created by Kuntal Chakraborty</text><text x="0" y="187" fill="#000000" font-size="5px" font-weight="bold" font-family="'Helvetica Neue', Helvetica, Arial-Unicode, Arial, Sans-serif">from the Noun Project</text></svg>