<svg width="670" height="660" viewBox="0 0 670 660" fill="none" xmlns="http://www.w3.org/2000/svg">
<path d="M490.72 354.344L425.245 318.897C423.499 317.534 421.753 316.171 421.753 314.807C421.753 312.762 421.753 311.399 423.499 310.035L435.721 298.447C440.086 293.675 440.959 288.222 437.467 282.768C434.848 278.678 430.483 275.952 425.245 275.27C426.991 271.862 430.483 265.726 441.832 265.045C454.927 263.681 462.784 270.498 466.276 275.952C469.768 282.087 469.768 290.949 460.165 297.084L461.911 298.447V299.129L459.292 297.765L446.197 305.945L462.784 303.9C463.657 303.9 491.593 299.81 504.689 284.132C511.673 275.952 513.419 267.09 509.927 256.183C502.942 234.369 478.498 218.009 448.816 215.964C448.816 215.964 447.943 213.237 447.07 208.466C446.197 203.694 444.451 196.877 441.832 188.697C436.594 172.337 427.864 151.205 411.277 132.8C406.912 128.028 402.547 123.938 397.309 119.848C392.071 115.758 387.706 112.349 384.214 108.259C376.357 100.761 371.119 91.8989 369.373 84.4005C367.627 76.2204 367.627 69.4036 367.627 65.3136C367.627 60.5418 368.5 57.8151 368.5 57.8151C368.5 57.8151 367.627 60.5418 366.754 65.3136C365.881 70.0853 365.008 76.9021 365.881 85.0822C366.754 93.2623 371.992 102.806 378.976 110.986C382.468 115.076 387.706 119.166 391.198 123.256C395.563 127.346 399.055 131.436 402.547 136.208C416.515 154.613 422.626 175.063 426.118 190.742C427.864 198.24 428.737 205.057 428.737 209.829C428.737 212.556 428.737 213.919 429.61 215.282C411.277 215.964 390.325 220.736 376.357 235.051L377.23 235.733C368.5 236.414 362.388 240.504 358.023 243.231C339.69 229.598 323.103 226.189 311.754 226.189C297.786 226.189 283.818 231.643 276.834 239.141C276.834 239.823 275.961 239.823 275.961 240.504C261.993 221.417 238.422 215.964 219.215 214.601C219.215 213.237 219.216 211.192 220.089 209.147C220.962 204.376 221.834 198.24 223.58 190.06C224.453 185.97 225.327 181.88 227.073 177.79C228.819 173.7 229.692 168.928 232.311 164.157C236.676 155.295 241.914 145.751 249.771 136.208C253.263 131.436 256.755 127.346 261.12 123.256C264.612 119.166 268.977 115.076 272.469 110.304C279.453 101.442 283.818 91.8989 285.564 83.7188C286.437 75.5387 285.564 68.7219 284.691 63.9502C283.818 59.1785 282.945 56.4518 282.945 56.4518C282.945 56.4518 282.945 59.1785 283.818 63.9502C283.818 68.7219 284.691 75.5387 282.072 83.0371C280.326 90.5356 275.088 99.3974 267.231 106.896C263.739 110.986 258.501 114.394 254.136 119.166C249.771 123.256 245.406 127.346 241.041 132.118C232.311 140.98 225.327 150.523 220.089 160.067C217.469 164.838 215.723 169.61 213.104 174.382C211.358 179.154 209.612 183.244 208.739 187.334C206.12 195.514 204.374 202.331 203.501 207.102C202.628 211.192 201.755 213.919 201.755 214.601C171.2 216.646 145.883 233.006 139.772 255.501C136.28 266.408 138.026 275.27 145.01 283.45C158.105 299.129 185.168 302.537 186.914 303.219L203.501 305.264L189.533 296.402C180.803 290.267 179.93 282.087 183.422 275.952C187.787 267.772 197.39 263 208.739 263.681C220.961 265.045 224.454 271.18 226.2 274.588C221.835 275.952 218.342 277.997 216.596 281.405C213.104 286.858 213.977 292.312 218.342 297.084L230.565 308.672C232.311 310.035 232.311 312.08 232.311 313.444C232.311 315.489 230.565 316.852 228.819 317.534L163.343 352.981C121.439 375.476 96.9946 412.287 96.9946 451.824C96.9946 491.361 122.312 528.854 164.216 551.349L224.454 583.388C226.2 584.751 227.946 586.114 227.946 588.159C227.946 590.205 227.073 592.25 225.327 593.613C220.962 597.021 219.215 602.475 221.835 607.246C224.454 612.018 230.565 615.427 236.676 615.427H415.642C422.626 615.427 427.864 612.7 430.483 607.246C433.102 602.475 431.356 597.021 426.991 593.613C425.245 592.25 424.372 590.205 424.372 588.159C424.372 586.114 426.118 584.751 427.864 583.388L488.101 551.349C530.006 528.854 555.323 492.043 555.323 451.824C557.069 413.65 532.625 376.84 490.72 354.344ZM193.898 436.827L225.327 408.879L258.501 436.827H193.898ZM296.913 436.827L328.341 408.879L361.515 436.827H296.913ZM400.801 436.827L432.229 408.879L465.403 436.827H400.801ZM109.217 438.872C110.963 427.965 114.455 417.74 120.566 408.197L156.359 438.872H109.217ZM502.069 438.872L535.244 408.879C540.482 418.422 543.974 428.647 545.72 438.872H502.069ZM316.119 329.122L312.627 333.212L322.23 332.531C330.96 331.849 339.69 330.486 346.674 329.122H426.118L452.308 343.438H203.501L229.692 329.122H316.119ZM461.038 348.209L470.641 352.981H185.168L194.771 348.209H461.038ZM427.864 285.495C429.61 287.54 428.737 290.267 426.991 292.312L414.769 303.9C413.896 304.582 413.023 305.264 413.023 306.627H396.436C406.039 297.765 410.404 288.903 412.15 281.405H420.007C423.499 282.087 426.118 283.45 427.864 285.495ZM444.451 221.417C472.387 222.781 495.085 237.096 501.196 256.865C503.815 265.726 502.069 273.225 496.831 279.36C490.72 286.177 481.117 290.267 473.26 292.994C476.752 286.858 477.625 279.36 473.26 272.543C467.149 262.318 454.054 256.183 439.213 257.546C422.626 258.91 416.515 267.772 414.769 273.907H413.896C413.896 272.543 413.896 271.862 413.896 271.18C413.896 265.045 412.15 258.91 408.658 253.456C408.658 253.456 408.658 252.775 409.531 252.775C410.404 251.411 412.15 250.048 413.896 248.685C415.642 247.321 419.134 245.276 422.626 243.913C424.372 243.231 426.118 242.549 428.737 241.868C430.483 241.186 433.102 241.186 434.848 240.504C443.578 239.141 452.308 239.823 459.292 241.186C462.784 241.868 465.403 241.868 467.149 242.549C468.895 243.231 470.641 243.231 470.641 243.231C470.641 243.231 469.768 243.231 468.022 242.549C466.276 241.868 463.657 241.186 460.165 240.504C453.181 239.141 444.451 237.096 434.848 237.778C432.229 237.778 430.483 237.778 427.864 238.459C425.245 238.459 423.499 239.141 420.88 239.823C416.515 241.186 413.023 242.549 409.531 244.595C407.785 245.958 406.039 247.321 404.293 248.003C403.42 246.64 402.547 245.276 400.801 244.595C396.436 241.186 392.071 239.141 387.706 237.778C403.42 222.781 426.991 220.736 444.451 221.417ZM287.31 243.231C290.802 238.459 300.405 233.006 314.373 233.006C324.849 233.006 340.563 235.733 358.023 250.048V250.73C358.896 251.411 360.642 252.775 362.388 255.501C365.007 258.91 368.5 263.681 370.246 269.135C371.119 271.862 371.992 274.588 371.992 277.315C371.992 280.042 371.992 282.087 371.119 284.132C370.246 288.222 368.5 290.949 368.5 290.949C368.5 290.949 370.246 288.903 372.865 284.813C373.738 282.768 374.611 280.042 375.484 277.315C376.357 274.588 375.484 271.862 375.484 268.453C374.611 262.318 371.992 256.865 369.373 252.775C368.5 251.411 367.627 250.048 366.754 248.685C369.373 246.64 374.611 242.549 381.595 242.549C385.96 242.549 390.325 244.595 395.563 248.003C402.547 254.138 406.039 262.318 406.039 271.18C406.039 282.087 399.928 316.852 330.087 325.032C338.817 314.126 353.658 289.585 347.547 273.907C344.928 267.772 338.817 263 330.96 260.273C326.595 258.91 322.23 258.228 317.865 258.228C307.389 258.228 297.786 261.636 289.929 267.09C289.929 262.318 289.056 254.82 286.437 250.73C283.818 248.003 285.564 244.594 287.31 243.231ZM337.071 273.907H292.548C301.278 266.408 314.373 263 325.722 266.408C331.833 267.772 335.325 270.498 337.071 273.907ZM211.358 257.546C195.644 256.183 182.549 263 177.311 273.907C173.819 280.723 174.692 287.54 178.184 292.994C170.327 290.267 160.724 286.177 154.613 279.36C149.375 273.225 147.629 265.726 150.248 256.865C156.359 237.096 179.93 222.099 206.993 221.417C208.739 221.417 210.485 221.417 213.104 221.417C241.914 221.417 275.961 230.279 279.453 270.498C279.453 271.18 279.453 271.862 279.453 272.543C279.453 272.543 279.453 272.543 279.453 273.225C279.453 273.907 279.453 274.588 279.453 274.588H263.739C263.739 274.588 263.739 274.588 263.739 273.907C263.739 271.18 262.866 268.453 261.12 264.363C260.247 262.318 259.374 260.273 258.501 258.228C257.628 256.183 255.882 254.138 254.136 251.411C252.39 249.366 249.771 247.321 247.152 245.276C244.533 243.231 241.041 241.868 238.422 240.504C234.93 239.823 232.311 238.459 228.819 237.778C225.327 237.778 221.834 237.096 219.215 237.096C215.723 237.096 213.104 237.096 210.485 237.778C207.866 238.459 205.247 238.459 202.628 239.141C197.39 239.823 193.898 241.186 191.279 241.868C188.66 242.549 186.914 243.231 186.914 243.231C186.914 243.231 188.66 243.231 191.279 242.549C193.898 241.868 198.263 241.186 202.628 240.504C205.247 240.504 207.866 239.823 210.485 239.823C213.104 239.823 216.596 239.823 219.215 239.823C222.707 239.823 225.327 240.504 227.946 241.186C231.438 241.868 234.057 243.231 236.676 243.913C239.295 245.276 241.914 246.64 243.66 248.685C246.279 250.048 247.152 252.093 248.898 254.138C249.771 256.183 251.517 258.228 252.39 260.273C253.263 262.318 254.136 264.363 254.136 265.726C255.009 269.135 255.009 272.543 255.009 274.588H234.93C234.93 267.771 227.946 258.91 211.358 257.546ZM227.946 292.994C226.2 290.949 225.327 288.222 227.073 286.177C228.819 284.132 231.438 282.768 234.93 282.768H339.69C339.69 290.267 336.198 299.81 331.833 307.99H241.914C241.041 307.309 241.041 305.945 240.168 305.264L227.946 292.994ZM158.978 367.978H496.831C509.054 376.158 518.657 385.02 526.514 395.927L484.609 433.419L432.229 388.428L381.595 433.419L329.214 388.428L278.58 433.419L226.2 388.428L175.565 433.419L130.169 394.563C137.153 385.02 146.756 376.158 158.978 367.978ZM422.626 605.201C422.626 605.883 420.88 607.928 417.388 607.928H237.549C234.057 607.928 232.311 605.883 232.311 605.201C232.311 604.52 231.438 602.475 233.184 600.43C237.549 597.021 239.295 592.931 238.422 588.841C238.422 588.159 238.422 587.478 237.549 586.796H414.769C414.769 587.478 414.769 588.159 413.896 588.841C413.023 592.931 415.642 597.703 419.134 600.43C423.499 601.793 422.626 604.52 422.626 605.201ZM424.372 577.253C422.626 578.616 420.88 579.979 419.134 581.343H235.803C234.057 579.979 233.184 578.616 230.565 577.253L200.882 561.574H453.181L424.372 577.253ZM483.736 545.214L462.784 556.121H192.152L171.2 545.214C156.359 537.034 144.137 527.49 133.661 516.583H175.565L123.185 471.593L112.709 481.136C110.09 472.956 108.344 464.776 108.344 455.914H546.593C546.593 463.413 544.847 470.911 543.101 478.41L534.371 470.911L484.609 515.22L433.102 471.593L382.468 516.583H483.736H485.482H520.403C511.673 527.49 498.577 537.715 483.736 545.214Z" fill="#26321F"/>
<path d="M281.199 130.073C281.199 130.073 282.945 129.391 286.437 128.709C288.183 128.028 289.929 127.346 292.548 126.664C293.421 125.983 295.167 125.301 296.04 124.619C296.913 123.938 297.786 123.256 299.532 121.893C302.151 120.529 303.897 117.803 305.643 115.758C307.389 113.031 309.135 110.304 310.008 107.578C310.881 104.851 311.754 101.442 312.627 98.7157C313.5 95.3073 313.5 92.5806 313.5 89.1723C313.5 76.2204 310.008 63.9502 307.389 55.0884C304.77 46.2266 303.024 40.0915 303.024 40.0915C303.024 40.0915 302.151 46.2266 303.024 55.7701C303.024 60.5418 303.897 65.9952 303.897 71.4486C303.897 76.9021 304.77 83.0372 304.77 89.1723C304.77 91.899 304.77 95.3073 304.77 98.034C304.77 99.3974 304.77 100.761 303.897 102.124C303.897 103.487 303.024 104.851 303.024 106.214C302.151 108.941 301.278 111.668 300.405 113.713C298.659 115.758 297.786 118.484 296.04 119.848C295.167 120.529 294.294 121.893 293.421 122.574C292.548 123.256 291.675 123.938 290.802 124.619C289.056 125.983 287.31 127.346 286.437 128.028C282.945 129.391 281.199 130.073 281.199 130.073Z" fill="#26321F"/>
<path d="M344.056 107.577C344.929 110.304 346.675 113.031 348.421 115.758C350.167 118.484 351.913 120.529 354.532 122.574C355.405 123.256 356.278 124.619 358.024 125.301C358.897 125.983 360.643 126.664 361.516 127.346C363.262 128.709 365.881 129.391 367.627 129.391C371.119 130.073 372.865 130.755 372.865 130.755C372.865 130.755 371.119 130.073 368.5 128.028C366.754 127.346 365.881 125.983 364.135 124.619C363.262 123.938 362.389 123.256 361.516 122.574C360.643 121.893 359.77 120.529 358.897 119.848C357.151 118.484 356.278 115.758 354.532 113.713C353.659 110.986 352.786 108.941 351.913 106.214C351.913 104.851 351.04 103.487 351.04 102.124C351.04 100.761 351.04 99.3974 350.167 98.034C350.167 95.3073 350.167 91.899 349.294 89.1722C349.294 83.0372 349.294 76.902 350.167 71.4486C350.167 65.9952 351.04 60.5418 351.04 55.7701C351.913 46.2266 351.04 40.0915 351.04 40.0915C351.04 40.0915 349.294 46.2266 346.675 55.0884C344.929 59.8601 344.056 64.6319 343.183 70.767C342.31 76.9021 341.437 83.0372 341.437 89.1722C341.437 92.5806 341.437 95.3073 342.31 98.7157C342.31 101.442 343.183 104.851 344.056 107.577Z" fill="#26321F"/>
<path d="M327.468 130.073C327.468 130.073 329.214 123.938 330.087 114.394C330.96 104.851 331.833 92.5806 331.833 79.6288C331.833 67.3586 330.96 54.4067 330.087 44.8633C329.214 35.3198 327.468 29.1847 327.468 29.1847C327.468 29.1847 325.722 35.3198 324.849 44.8633C323.976 54.4067 323.103 66.6769 323.103 79.6288C323.103 91.8989 323.976 104.851 324.849 114.394C325.722 123.938 327.468 130.073 327.468 130.073Z" fill="#26321F"/>
<path d="M176.438 516.583H279.453L227.072 471.593L176.438 516.583Z" fill="#26321F"/>
<path d="M279.453 516.583H382.468L330.088 471.593L279.453 516.583Z" fill="#26321F"/>
<path d="M143.264 468.866L176.438 497.497L208.74 468.866H143.264Z" fill="#26321F"/>
<path d="M311.754 468.866H246.279L279.453 497.497L311.754 468.866Z" fill="#26321F"/>
<path d="M414.769 468.866H349.293L382.468 497.497L414.769 468.866Z" fill="#26321F"/>
<path d="M517.784 468.866H452.308L486.355 497.497L517.784 468.866Z" fill="#26321F"/>
</svg>
